<mxfile modified="2021-07-24T04:29:29.498Z" host="app.diagrams.net" agent="5.0 (Windows NT 10.0; Win64; x64) AppleWebKit/537.36 (KHTML, like Gecko) Chrome/92.0.4515.107 Safari/537.36" etag="WTIpYi9obbqDNEYNBDAJ" version="14.9.2" type="github">
  <diagram id="Ht1M8jgEwFfnCIfOTk4-" name="Page-1">
    <mxGraphModel dx="2062" dy="1122" grid="1" gridSize="10" guides="1" tooltips="1" connect="1" arrows="1" fold="1" page="1" pageScale="1" pageWidth="1169" pageHeight="827" math="0" shadow="0">
      <root>
        <mxCell id="0" />
        <mxCell id="1" parent="0" />
        <mxCell id="0298e2K7td8naZUS6Pxu-14" value="" style="rounded=1;whiteSpace=wrap;html=1;fillColor=none;" vertex="1" parent="1">
          <mxGeometry x="40" y="160" width="1080" height="440" as="geometry" />
        </mxCell>
        <mxCell id="0298e2K7td8naZUS6Pxu-16" value="" style="rounded=0;whiteSpace=wrap;html=1;fillColor=none;" vertex="1" parent="1">
          <mxGeometry x="40" y="40" width="280" height="80" as="geometry" />
        </mxCell>
        <mxCell id="0298e2K7td8naZUS6Pxu-1" value="" style="outlineConnect=0;dashed=0;verticalLabelPosition=bottom;verticalAlign=top;align=center;html=1;shape=mxgraph.aws3.virtual_private_cloud;fillColor=#F58534;gradientColor=none;" vertex="1" parent="1">
          <mxGeometry x="300" y="387" width="79.5" height="54" as="geometry" />
        </mxCell>
        <mxCell id="0298e2K7td8naZUS6Pxu-2" value="" style="outlineConnect=0;dashed=0;verticalLabelPosition=bottom;verticalAlign=top;align=center;html=1;shape=mxgraph.aws3.ec2;fillColor=#F58534;gradientColor=none;" vertex="1" parent="1">
          <mxGeometry x="200" y="356" width="76.5" height="93" as="geometry" />
        </mxCell>
        <mxCell id="0298e2K7td8naZUS6Pxu-4" value="" style="outlineConnect=0;dashed=0;verticalLabelPosition=bottom;verticalAlign=top;align=center;html=1;shape=mxgraph.aws3.route_53;fillColor=#F58536;gradientColor=none;" vertex="1" parent="1">
          <mxGeometry x="490" y="610" width="70.5" height="85.5" as="geometry" />
        </mxCell>
        <mxCell id="0298e2K7td8naZUS6Pxu-5" value="" style="outlineConnect=0;dashed=0;verticalLabelPosition=bottom;verticalAlign=top;align=center;html=1;shape=mxgraph.aws3.rds;fillColor=#2E73B8;gradientColor=none;" vertex="1" parent="1">
          <mxGeometry x="680" y="449" width="72" height="81" as="geometry" />
        </mxCell>
        <mxCell id="0298e2K7td8naZUS6Pxu-6" value="" style="outlineConnect=0;dashed=0;verticalLabelPosition=bottom;verticalAlign=top;align=center;html=1;shape=mxgraph.aws3.s3;fillColor=#E05243;gradientColor=none;" vertex="1" parent="1">
          <mxGeometry x="730" y="594" width="76.5" height="93" as="geometry" />
        </mxCell>
        <mxCell id="0298e2K7td8naZUS6Pxu-7" value="" style="outlineConnect=0;dashed=0;verticalLabelPosition=bottom;verticalAlign=top;align=center;html=1;shape=mxgraph.aws3.cloud_2;fillColor=#F58534;gradientColor=none;" vertex="1" parent="1">
          <mxGeometry x="40" y="160" width="60" height="60" as="geometry" />
        </mxCell>
        <mxCell id="0298e2K7td8naZUS6Pxu-8" value="" style="outlineConnect=0;dashed=0;verticalLabelPosition=bottom;verticalAlign=top;align=center;html=1;shape=mxgraph.aws3.users;fillColor=#D2D3D3;gradientColor=none;" vertex="1" parent="1">
          <mxGeometry x="550" y="640" width="66" height="63" as="geometry" />
        </mxCell>
        <mxCell id="0298e2K7td8naZUS6Pxu-9" value="" style="outlineConnect=0;dashed=0;verticalLabelPosition=bottom;verticalAlign=top;align=center;html=1;shape=mxgraph.aws3.management_console;fillColor=#D2D3D3;gradientColor=none;" vertex="1" parent="1">
          <mxGeometry x="130" y="50" width="60" height="60" as="geometry" />
        </mxCell>
        <mxCell id="0298e2K7td8naZUS6Pxu-10" value="" style="outlineConnect=0;dashed=0;verticalLabelPosition=bottom;verticalAlign=top;align=center;html=1;shape=mxgraph.aws3.internet_gateway;fillColor=#F58536;gradientColor=none;" vertex="1" parent="1">
          <mxGeometry x="890" y="640" width="69" height="72" as="geometry" />
        </mxCell>
        <mxCell id="0298e2K7td8naZUS6Pxu-11" value="" style="outlineConnect=0;dashed=0;verticalLabelPosition=bottom;verticalAlign=top;align=center;html=1;shape=mxgraph.aws3.application_load_balancer;fillColor=#F58536;gradientColor=none;" vertex="1" parent="1">
          <mxGeometry x="930" y="470" width="69" height="72" as="geometry" />
        </mxCell>
        <mxCell id="0298e2K7td8naZUS6Pxu-12" value="" style="aspect=fixed;html=1;points=[];align=center;image;fontSize=12;image=img/lib/mscae/Docker.svg;" vertex="1" parent="1">
          <mxGeometry x="220" y="50" width="73.17" height="60" as="geometry" />
        </mxCell>
        <mxCell id="0298e2K7td8naZUS6Pxu-13" value="" style="dashed=0;outlineConnect=0;html=1;align=center;labelPosition=center;verticalLabelPosition=bottom;verticalAlign=top;shape=mxgraph.weblogos.github" vertex="1" parent="1">
          <mxGeometry x="360" y="40" width="80" height="80" as="geometry" />
        </mxCell>
        <mxCell id="0298e2K7td8naZUS6Pxu-15" value="" style="shape=actor;whiteSpace=wrap;html=1;fillColor=none;" vertex="1" parent="1">
          <mxGeometry x="60" y="50" width="40" height="60" as="geometry" />
        </mxCell>
      </root>
    </mxGraphModel>
  </diagram>
</mxfile>
